<?xml version="1.0" encoding="utf-8"?>
<svg xmlns="http://www.w3.org/2000/svg" viewBox="0 0 200 120" width="200px" height="120px">
  <defs>
    <pattern id="camo-digital" width="20" height="20" patternUnits="userSpaceOnUse">
      <rect width="20" height="20" fill="#3f4e3f" id="rect-bg-dig"/>
      <rect x="0" y="0" width="8" height="6" fill="#2d3a2d" id="rect-dark-dig"/>
      <rect x="10" y="4" width="6" height="8" fill="#546554" id="rect-medium-dig"/>
      <rect x="2" y="10" width="8" height="6" fill="#7ba077" id="rect-light-dig"/>
      <rect x="12" y="12" width="6" height="6" fill="#202a20" id="rect-black-dig"/>
    </pattern>
    <linearGradient id="brillo-celular" x1="0%" y1="0%" x2="100%" y2="100%">
      <stop offset="0" stop-color="#38bdf8" stop-opacity="0.6"/>
      <stop offset="1" stop-color="#bae6fd" stop-opacity="0.1"/>
    </linearGradient>
    <pattern id="teselacion" width="40" height="40" patternUnits="userSpaceOnUse">
      <polygon points="0,0 20,10 20,30 0,20" fill="#111827" stroke="#020408" stroke-width="0.5"/>
      <polygon points="20,10 40,0 40,20 20,30" fill="#1f2937" stroke="#020408" stroke-width="0.5"/>
      <polygon points="0,20 20,30 20,40 0,40" fill="#0f172a" stroke="#020408" stroke-width="0.5"/>
      <polygon points="20,30 40,20 40,40 20,40" fill="#1e1b4b" stroke="#020408" stroke-width="0.5"/>
    </pattern>
    <linearGradient id="gradient-1" x1="0%" y1="0%" x2="100%" y2="100%">
      <stop offset="0" stop-color="#38bdf8" stop-opacity="0.6"/>
      <stop offset="1" stop-color="#bae6fd" stop-opacity="0.1"/>
    </linearGradient>
  </defs>
  <g transform="matrix(-0.047757, 0, 0.030459, 0.054367, 16.512572, 72.678393)" style="">
    <polygon points="130,360 100,120 300,120 270,360" fill="url(#teselacion)" stroke="#06b6d4" stroke-width="1.5"/>
    <g transform="matrix(1, 0, 0, 1, -54.158613, 5.563326)">
      <polygon points="200,160 225,180 200,200 175,180" fill="#22d3ee"/>
      <line x1="188.179" y1="174.081" x2="200.433" y2="193.748" stroke="#020408" stroke-width="3" style=""/>
    </g>
  </g>
  <g id="sillon-contenedor" transform="matrix(0.114551, 0, 0, 0.130749, 5.932414, 76.120112)" style="">
    <rect x="60" y="80" width="380" height="130" rx="15" fill="#78350f" stroke="#451a03" stroke-width="2"/>
    <rect x="50" y="180" width="400" height="70" rx="12" fill="#92400e" stroke="#451a03" stroke-width="2"/>
    <line x1="250" y1="180" x2="250" y2="250" stroke="#451a03" stroke-width="1.5"/>
    <rect x="20" y="150" width="60" height="100" rx="20" fill="#b45309" stroke="#451a03" stroke-width="2"/>
    <rect x="420" y="150" width="60" height="100" rx="20" fill="#b45309" stroke="#451a03" stroke-width="2"/>
    <rect x="40" y="250" width="25" height="15" fill="#1c1917"/>
    <rect x="435" y="250" width="25" height="15" fill="#1c1917"/>
  </g>
  <g id="celular-táctico" transform="matrix(0.089285, 0, 0, 0.112814, 6.306325, 73.610171)" style="">
    <polygon points="160,150 162,175 120,165 122,158" fill="url(#brillo-celular)"/>
    <rect x="158" y="148" width="8" height="26" rx="1.5" fill="#18181b" stroke="#27272a" stroke-width="0.5" transform="rotate(-15, 160, 160)"/>
    <rect x="159" y="150" width="4" height="22" rx="0.5" fill="#38bdf8" transform="rotate(-15, 160, 160)"/>
  </g>
  <g id="camo-flojo" transform="matrix(0.114551, 0, 0, 0.130749, 7.077928, 74.533602)" style="">
    <path id="camo-pata-superior" d="M 130.444 194.395 L 150.444 184.395 L 148.444 199.395 L 130.444 194.395 Z" fill="#f59e0b" stroke="#d97706" stroke-width="0.5"/>
    <ellipse id="camo-cuerpo" cx="118.065" cy="174.941" rx="32.959" ry="20.195" fill="url(#camo-digital)" stroke="#7ba077" stroke-width="0.5" style="" transform="matrix(0.964779, 0.26306, 0, 1.036506, -8.433431, -36.30004)"/>
    <ellipse id="camo-vientre" cx="106.907" cy="174.248" rx="22.886" ry="13.458" fill="#d8d8d0" stroke="#000000" stroke-width="0.8" style="" transform="matrix(0.961297, 0.275515, 0, 1.040261, 5.282357, -40.190219)"/>
    <circle id="camo-cabeza" cx="115" cy="165" r="18" fill="url(#camo-digital)" stroke="#7ba077" stroke-width="0.5" style="" transform="matrix(1.297488, 0, 0, 1.424591, -78.935854, -98.101832)"/>
    <polygon id="camo-pico" points="84.066 141.103 93.12 145.741 82.255 148.832" fill="#f59e0b" stroke="#d97706" stroke-width="0.5" style=""/>
    <g id="camo-patas-contenedor" transform="matrix(1, 0, 0, 1, -71.257288, -14.881023)">
      <path id="camo-pata-inferior" d="M 195 210 L 215 212 L 208 222 Z" fill="#f59e0b" stroke="#d97706" stroke-width="0.5"/>
    </g>
    <g id="group-1" transform="matrix(0, 2.369476, -2.141482, 0, 150.247929, 290.859048)" style="">
      <circle id="circle-1" cx="-67.91" cy="33.303" r="2.2" fill="#f4f4f5"/>
      <circle id="circle-2" cx="-67.859" cy="32.19" r="1.019" fill="#000000"/>
      <path id="path-1" d="M -69.893 30.003 C -71.83 29.334 -72.272 34.537 -71.043 36.562" stroke="#18181b" stroke-width="1.2" stroke-linecap="round" style="fill: none;"/>
    </g>
    <path id="camo-aleta" d="M 99.09 153.521 C 112.09 148.521 121.804 131.199 126.804 141.199" stroke-width="3" stroke-linecap="round" stroke="#1c1917" fill="none"/>
    <path id="path-2" d="M 86.361 170.394 C 99.361 165.394 126.789 155.112 125.203 142.63" stroke-width="3" stroke-linecap="round" stroke="#1c1917" fill="none" style="stroke-width: 3;"/>
  </g>
  <g id="casco-grupo" transform="matrix(-0.183405, 0.097468, 0.077837, 0.190814, 120.62791, 69.155581)" style="transform-origin: -68.388px 28.512px;">
    <path id="casco-cuerpo" d="M -58.2 33 C -58.472 18.27 -77.743 18.379 -77.6 33 C -77.585 34.5 -58.172 34.5 -58.2 33 Z" fill="url(#camo-digital)" stroke="#1b2611" stroke-width="0.5"/>
    <path id="casco-banda" d="M -77.2 27.5 C -72 25 -64 25 -58.6 27.5" stroke="#1c1917" stroke-width="1.2" fill="none" opacity="0.8"/>
  </g>
  <g id="group-2" transform="matrix(0.978245, 0, 0, 1.682657, -53.315443, -197.01441)" style="">
    <polygon points="121.805 131.076 128.666 170.055 78.101 170.895 77.786 169.791" fill="url(#gradient-1)"/>
  </g>
  <g transform="matrix(0.252977, 0, 0, 0.192393, 71.371432, 0.911552)" style="">
    <g id="dispositivo">
      <rect x="20" y="20" width="460" height="560" rx="40" fill="#0f172a"/>
      <rect x="32" y="32" width="436" height="536" rx="32" fill="#cbd5e1"/>
      <rect x="185" y="42" width="130" height="16" rx="8" fill="#0f172a"/>
    </g>
    <g id="interfaz-planes" transform="matrix(1, 0, 0, 1, 32.000001, 70.000002)">
      <text x="218" y="25" font-family="sans-serif" font-size="18" font-weight="900" fill="#0f172a" text-anchor="middle" letter-spacing="0.5" style="white-space: pre;">SELECCIONA TU PLAN DE PAGO</text>
      <text x="218" y="42" font-family="sans-serif" font-size="11" font-weight="bold" fill="#475569" text-anchor="middle" style="white-space: pre;">¡Último paso para obtener tu Iglú Mediterráneo!</text>
      <g id="columna-verde-trampa" transform="translate(15, 65)">
        <rect width="130" height="340" rx="12" fill="#f0fdf4" stroke="#22c55e" stroke-width="3"/>
        <path d="M 10 0 L 120 0 L 110 18 L 20 18 Z" fill="#22c55e"/>
        <text x="65" y="12" font-family="sans-serif" font-size="8" font-weight="900" fill="#ffffff" text-anchor="middle" style="white-space: pre;">¡MÁS POPULAR!</text>
        <text x="65" y="38" font-family="sans-serif" font-size="11" font-weight="900" fill="#15803d" text-anchor="middle" style="white-space: pre;">PLAN PREMIUM</text>
        <line x1="15" y1="46" x2="115" y2="46" stroke="#bbf7d0" stroke-width="1"/>
        <text x="65" y="65" font-family="sans-serif" font-size="8" font-weight="bold" fill="#166534" text-anchor="middle" style="white-space: pre;">TASA MÁS BAJA</text>
        <text x="65" y="88" font-family="Impact, sans-serif" font-size="22" fill="#16a34a" text-anchor="middle" style="white-space: pre;">3.5% <tspan font-size="10" font-family="sans-serif" font-weight="bold">TNA</tspan></text>
        <rect x="15" y="100" width="100" height="35" rx="6" fill="#dcfce7"/>
        <text x="65" y="114" font-family="sans-serif" font-size="9" font-weight="900" fill="#14532d" text-anchor="middle" style="white-space: pre;">CUOTAS CÓMODAS</text>
        <text x="65" y="128" font-family="sans-serif" font-size="11" font-weight="900" fill="#16a34a" text-anchor="middle" style="white-space: pre;">240 Meses</text>
        <text x="65" y="155" font-family="sans-serif" font-size="7" fill="#bbf7d0" text-anchor="middle" font-weight="bold" style="white-space: pre;">TEA: 45.2%</text>
        <text x="13.897" y="193.53" font-family="sans-serif" font-size="8" font-weight="bold" fill="#166534" style="white-space: pre; font-size: 10px;">Pista de Hielo Incluida</text>
        <text x="15" y="210" font-family="sans-serif" font-size="8" font-weight="bold" fill="#166534" style="white-space: pre; text-anchor: middle;" transform="matrix(1, 0, 0, 1, 47.420789, 5.514045)">Foto autografiada por<tspan x="15" dy="1em">​</tspan>Brad Pinguino<tspan x="15" dy="1em">​</tspan><tspan x="15" dy="1em">​</tspan><tspan x="15" dy="1em">​</tspan></text>
        <path d="M 20 240 Q 20 245, 25 245 Q 20 245, 20 250 Q 20 245, 15 245 Q 20 245, 20 240 Z" fill="#eab308"/>
        <path d="M 104.486 242.866 C 104.486 246.199 106.153 247.866 109.486 247.866 C 106.153 247.866 104.486 249.533 104.486 252.866 C 104.486 249.533 102.819 247.866 99.486 247.866 C 102.819 247.866 104.486 246.199 104.486 242.866 Z" fill="#eab308"/>
        <g id="btn-col1" transform="translate(12, 285)">
          <rect width="106" height="36" rx="8" fill="#22c55e" stroke="#15803d" stroke-width="1"/>
          <text x="53" y="22" font-family="sans-serif" font-size="10" font-weight="900" fill="#ffffff" text-anchor="middle" style="white-space: pre;">¡LO QUIERO YA!</text>
        </g>
        <path d="M 63.712 251.425 C 63.712 254.758 65.379 256.425 68.712 256.425 C 65.379 256.425 63.712 258.092 63.712 261.425 C 63.712 258.092 62.045 256.425 58.712 256.425 C 62.045 256.425 63.712 254.758 63.712 251.425 Z" fill="#eab308" style="stroke-width: 1;"/>
      </g>
      <g id="columna-gris-equilibrada" transform="translate(153, 65)">
        <rect width="130" height="340" rx="12" fill="#f1f5f9" stroke="#94a3b8" stroke-width="1"/>
        <text x="65" y="15" font-family="sans-serif" font-size="8" font-weight="bold" fill="#64748b" text-anchor="middle" style="white-space: pre;">RECOMENDADO</text>
        <text x="65" y="38" font-family="sans-serif" font-size="11" font-weight="bold" fill="#334155" text-anchor="middle" style="white-space: pre;">PLAN ESTANDAR</text>
        <line x1="15" y1="46" x2="115" y2="46" stroke="#cbd5e1" stroke-width="1"/>
        <text x="65" y="65" font-family="sans-serif" font-size="8" fill="#64748b" text-anchor="middle" style="white-space: pre;">Tasa Estándar</text>
        <text x="65" y="88" font-family="Impact, sans-serif" font-size="20" fill="#475569" text-anchor="middle" style="white-space: pre;">8.9% <tspan font-size="10" font-family="sans-serif" font-weight="bold">TNA</tspan></text>
        <rect x="15" y="100" width="100" height="35" rx="6" fill="#e2e8f0"/>
        <text x="65" y="114" font-family="sans-serif" font-size="9" font-weight="bold" fill="#475569" text-anchor="middle" style="white-space: pre;">PLAZO CORTO</text>
        <text x="65" y="128" font-family="sans-serif" font-size="11" font-weight="bold" fill="#334155" text-anchor="middle" style="white-space: pre;">36 Meses</text>
        <text x="65" y="155" font-family="sans-serif" font-size="8" fill="#475569" text-anchor="middle" font-weight="bold" style="white-space: pre;">TEA: 9.5%</text>
        <text x="65" y="165" font-family="sans-serif" font-size="6" fill="#94a3b8" text-anchor="middle" style="white-space: pre;">Sin Comisiones Extras</text>
        <text x="27.499" y="194.632" font-family="sans-serif" font-size="8" font-weight="bold" fill="#475569" style="white-space: pre; font-size: 10px;">Seguro incluido</text>
        <text x="26.764" y="212.205" font-family="sans-serif" font-size="8" font-weight="bold" fill="#475569" style="white-space: pre; font-size: 10px;">Título Propiedad</text>
        <g id="btn-col2" transform="translate(12, 285)">
          <rect width="106" height="36" rx="8" fill="#64748b"/>
          <text x="53" y="22" font-family="sans-serif" font-size="10" font-weight="bold" fill="#ffffff" text-anchor="middle" style="white-space: pre;">SELECCIONAR</text>
        </g>
      </g>
      <g id="columna-gris-palido" transform="translate(291, 65)">
        <rect width="130" height="340" rx="12" fill="#f8fafc" stroke="#cbd5e1" stroke-width="1"/>
        <text x="65" y="15" font-family="sans-serif" font-size="8" fill="#94a3b8" text-anchor="middle" style="white-space: pre;">OPCIÓN RÁPIDA</text>
        <text x="65" y="38" font-family="sans-serif" font-size="11" font-weight="bold" fill="#64748b" text-anchor="middle" style="white-space: pre;">PLAN NORMAL</text>
        <line x1="15" y1="46" x2="115" y2="46" stroke="#e2e8f0" stroke-width="1"/>
        <text x="65" y="65" font-family="sans-serif" font-size="8" fill="#94a3b8" text-anchor="middle" style="white-space: pre;">¡Paga solo el 0.5% Hoy!</text>
        <text x="65" y="88" font-family="Impact, sans-serif" font-size="20" fill="#94a3b8" text-anchor="middle" style="white-space: pre;">2.9% <tspan font-size="10" font-family="sans-serif" font-weight="bold">TNA</tspan></text>
        <rect x="15" y="100" width="100" height="35" rx="6" fill="#f1f5f9"/>
        <text x="65" y="114" font-family="sans-serif" font-size="8" fill="#94a3b8" text-anchor="middle" style="white-space: pre;">FINANCIACIÓN</text>
        <text x="65" y="128" font-family="sans-serif" font-size="11" font-weight="bold" fill="#64748b" text-anchor="middle" style="white-space: pre;">360 Meses</text>
        <text x="65" y="155" font-family="sans-serif" font-size="8" fill="#94a3b8" text-anchor="middle" font-weight="bold" style="white-space: pre;">TEA: 78.4%</text>
        <text x="45.075" y="195.401" font-family="sans-serif" font-size="8" fill="#cbd5e1" style="white-space: pre; font-size: 10px;">Sin Seguro</text>
        <g id="btn-col3" transform="translate(12, 285)">
          <rect width="106" height="36" rx="8" fill="#cbd5e1"/>
          <text x="53" y="22" font-family="sans-serif" font-size="10" font-weight="bold" fill="#94a3b8" text-anchor="middle" style="white-space: pre;">SELECCIONAR</text>
        </g>
      </g>
    </g>
    <g id="footer-bloqueado" transform="matrix(1, 0, 0, 1, 32.000001, 512.000015)">
      <rect width="436" height="56" fill="#1e293b" opacity="0.1" rx="0"/>
      <text x="218" y="32" font-family="sans-serif" font-size="9" font-weight="bold" fill="#475569" text-anchor="middle" style="white-space: pre;">* Los precios de referencia mostrados no garantizan la estabilidad térmica del iglú.</text>
    </g>
  </g>
</svg>