<?xml version="1.0" encoding="utf-8"?>
<svg xmlns="http://www.w3.org/2000/svg" viewBox="0 0 200 120" width="200px" height="120px">
  <defs>
    <pattern id="teselacion" width="40" height="40" patternUnits="userSpaceOnUse" patternTransform="matrix(0.999888, 0.017041, -0.013154, 0.999888, 3.179298, -3.381333)">
      <polygon points="0,0 20,10 20,30 0,20" fill="#111827" stroke="#020408" stroke-width="0.5"/>
      <polygon points="20,10 40,0 40,20 20,30" fill="#1f2937" stroke="#020408" stroke-width="0.5"/>
      <polygon points="0,20 20,30 20,40 0,40" fill="#0f172a" stroke="#020408" stroke-width="0.5"/>
      <polygon points="20,30 40,20 40,40 20,40" fill="#1e1b4b" stroke="#020408" stroke-width="0.5"/>
    </pattern>
  </defs>
  <g style="" transform="matrix(0.204386, 0, 0, 0.179566, 109.414691, 19.192984)">
    <path id="path-2" d="M 76.803 196.156 C 71.563 178.814 115.955 225.818 91.894 280.699" stroke-linecap="round" stroke="rgb(0, 0, 0)" fill="none" style="transform-box: fill-box; transform-origin: 50% 50%; stroke-width: 10.418px;" transform="matrix(0, 1.138222, -0.878563, 0, 0.000028, -0.00001)"/>
    <polygon points="128.429 358.794 101.59 118.309 301.567 121.718 268.414 361.179" fill="url(#teselacion)" stroke="#06b6d4" stroke-width="1.5" style="transform-origin: 200px 240px;"/>
    <polygon points="155.035 148.511 180.035 168.511 155.035 188.511 130.035 168.511" fill="#22d3ee"/>
    <line x1="148.611" y1="158.732" x2="155.035" y2="182.988" stroke="#020408" stroke-width="3" style=""/>
    <path id="path-4" d="M 116.335 196.849 C 111.095 179.508 166.823 207.174 115.253 292.447" stroke-linecap="round" stroke="rgb(0, 0, 0)" fill="none" style="stroke-width: 10.418px; transform-box: fill-box; transform-origin: 50% 50%;" transform="matrix(0, 1.138222, -0.878563, 0, -0.000013, 0.000012)"/>
    <path id="path-5" d="M 386.098 120.481 C 434.242 133.117 400.957 140.502 385.262 152.43" stroke-linecap="round" style="fill: none; stroke: rgb(255, 255, 255); transform-origin: 273.549px -7.507px; stroke-width: 5.20898px;" transform="matrix(0, 1.138222, -0.878563, 0, -0.000058, 0.000053)"/>
  </g>
  <g id="pinguino-contenedor" transform="matrix(0, 0.848747, -0.768697, 0, 76.463808, 104.227954)">
    <path id="path-1" d="M -57.788 25.808 C -59.05 29.859 -48.36 18.879 -54.154 6.059" stroke-width="2.5" stroke-linecap="round" stroke="rgb(0, 0, 0)" fill="none" style="stroke-width: 2.5;"/>
    <path id="pata-superior" d="M -32.417 31.796 L -25.744 26.644 L -25.774 33.746 L -32.417 31.796 Z" fill="#f59e0b"/>
    <ellipse id="cuerpo" cx="-47.91" cy="37.303" rx="20" ry="14" fill="#18181b"/>
    <ellipse id="vientre" cx="-49.91" cy="31.303" rx="14" ry="8" fill="#f4f4f5"/>
    <circle id="cabeza" cx="-67.91" cy="33.303" r="10" fill="#18181b"/>
    <g id="bufanda" transform="matrix(1, 0, 0, 1, -51.910336, 17.303471)">
      <path id="bufanda-cuello" d="M -14.315 26.443 C -12.315 20.443 -3.738 18.577 -6.624 13.624" stroke="#ef4444" stroke-width="2.2" fill="none" stroke-linecap="round"/>
      <path id="bufanda-caida-roja" d="M -7.663 13.49 C -2.663 12.49 3 11 7 9 C 5 7 0.204 10.408 -6.796 12.408 L -7.663 13.49 Z" fill="#ef4444"/>
      <path id="bufanda-caida-guinda" d="M -6.929 14.898 C -1.929 14.898 2 14 5 13 C 3 11 -0.337 13.357 -7.337 13.357 L -6.929 14.898 Z" fill="#b91c1c"/>
    </g>
    <g id="ojo">
      <circle id="ojo-borde" cx="-67.91" cy="33.303" r="2.2" fill="#f4f4f5"/>
      <circle id="ojo-pupila" cx="-68.196" cy="31.871" r="1.019" fill="#000000"/>
    </g>
    <polygon id="pico" points="-70.91 26.303 -67.91 19.303 -64.91 26.303" fill="#f59e0b"/>
    <g id="patas" transform="matrix(1, 0, 0, 1, -51.910336, 17.303471)">
      <path id="pata-inferior" d="M 26.663 20.735 L 26.851 27.446 L 19.486 24.256 L 26.663 20.735 Z" fill="#f59e0b"/>
    </g>
    <g>
      <path id="aleta" d="M -56.369 37.201 C -57.631 41.252 -44.212 34.79 -56.63 14.87" stroke-width="2.5" stroke-linecap="round" stroke="rgb(0, 0, 0)" fill="none"/>
    </g>
    <path id="path-3" d="M -73.439 29.591 C -69.243 32.171 -72.144 33.677 -73.512 36.113" stroke-width="1.2" stroke-linecap="round" style="fill: none; stroke-width: 0.77; stroke: rgb(255, 255, 255); transform-box: fill-box; transform-origin: 50% 50%;"/>
  </g>
</svg>